<svg width="48" height="48" viewBox="0 0 48 48" fill="none" xmlns="http://www.w3.org/2000/svg">
<path d="M17.4575 31.5109C17.9086 31.8302 18.4477 32.0018 19.0004 32.0019C19.5504 32.0038 20.0874 31.835 20.5374 31.5189C20.9423 31.2311 21.2596 30.8369 21.4544 30.3799L22.6904 26.6109C22.9926 25.7024 23.5024 24.8769 24.1794 24.1999C24.8564 23.5229 25.6819 23.0131 26.5904 22.7109L30.2214 21.5279C30.7425 21.3442 31.1937 21.0033 31.5128 20.5523C31.832 20.1013 32.0034 19.5624 32.0034 19.0099C32.0034 18.4574 31.832 17.9185 31.5128 17.4676C31.1937 17.0166 30.7425 16.6757 30.2214 16.4919L26.5214 15.2989C25.6148 14.9953 24.7906 14.486 24.1134 13.8109C23.4391 13.1365 22.9301 12.315 22.6264 11.4109L21.4474 7.78194C21.2639 7.26077 20.9228 6.8096 20.4714 6.49094C20.0181 6.1776 19.48 6.00977 18.9289 6.00977C18.3778 6.00977 17.8398 6.1776 17.3864 6.49094C16.9269 6.81628 16.5815 7.27815 16.3994 7.81094L15.2064 11.4779C14.9063 12.3509 14.4146 13.1456 13.7674 13.8039C13.106 14.4748 12.2997 14.9852 11.4104 15.2959L7.78343 16.4739C7.39406 16.6113 7.04184 16.837 6.75442 17.1334C6.467 17.4299 6.25222 17.7889 6.12693 18.1823C6.00164 18.5757 5.96925 18.9928 6.03232 19.4008C6.0954 19.8089 6.2522 20.1967 6.49043 20.5339C6.81634 20.9938 7.27894 21.3391 7.81243 21.5209L11.4004 22.6859C12.3093 22.9904 13.135 23.5018 13.8124 24.1799C13.9937 24.3624 14.1637 24.5558 14.3214 24.7589C14.7507 25.3109 15.0825 25.9322 15.3024 26.5959L16.4814 30.2189C16.6653 30.7402 17.0063 31.1915 17.4575 31.5109ZM32.8759 40.6435C33.2045 40.8763 33.5972 41.0015 33.9999 41.0019L34.0049 41.0049C34.4127 41.0048 34.8101 40.8765 35.141 40.6382C35.4719 40.3999 35.7195 40.0637 35.8489 39.6769L36.4179 37.9269C36.5355 37.5771 36.7319 37.2589 36.9919 36.9969C37.252 36.7375 37.5686 36.5418 37.9169 36.4249L39.7069 35.8429C39.9905 35.7428 40.2471 35.5783 40.4564 35.3622C40.6657 35.1462 40.822 34.8846 40.9131 34.5979C41.0042 34.3112 41.0276 34.0073 40.9814 33.7101C40.9352 33.4129 40.8207 33.1304 40.6469 32.8849C40.3998 32.5392 40.0471 32.283 39.6419 32.1549L37.8849 31.5859C37.5357 31.4693 37.2184 31.273 36.9581 31.0127C36.6978 30.7524 36.5015 30.4351 36.3849 30.0859L35.8029 28.2969C35.6697 27.9177 35.4215 27.5894 35.0929 27.3579C34.8453 27.1824 34.56 27.0673 34.2599 27.0218C33.9598 26.9762 33.6532 27.0016 33.3647 27.0957C33.0761 27.1899 32.8136 27.3503 32.5982 27.5641C32.3827 27.7779 32.2203 28.0391 32.1239 28.3269L31.5519 30.0839C31.4386 30.4278 31.2483 30.7412 30.9954 31.0003C30.7426 31.2594 30.4339 31.4573 30.0929 31.5789L28.3019 32.1609C27.9199 32.2955 27.5895 32.546 27.3568 32.8775C27.1241 33.209 27.0008 33.6048 27.004 34.0098C27.0072 34.4148 27.1368 34.8086 27.3746 35.1364C27.6125 35.4641 27.9468 35.7094 28.3309 35.8379L30.0829 36.4079C30.4329 36.5248 30.7508 36.7218 31.0113 36.9833C31.2717 37.2447 31.4674 37.5634 31.5829 37.9139L32.1649 39.7019C32.2989 40.0817 32.5472 40.4107 32.8759 40.6435Z" fill="white"/>
</svg>
