<!-- Exported by Character Map UWP -->
<svg height="100%" viewBox="0 141 1024 753" width="100%" xmlns="http://www.w3.org/2000/svg" xmlns:xlink="http://www.w3.org/1999/xlink">
  <path d="M0,512C0,477.667 3.25,444 9.75,411C16.25,378 26.1667,345.667 39.5,314C45.5,300 52.5,285.5 60.5,270.5C68.5,255.5 77.25,240.75 86.75,226.25C96.25,211.75 106.333,197.917 117,184.75C127.667,171.583 138.833,159.833 150.5,149.5C153.833,146.5 157,144.25 160,142.75C163,141.25 166.833,140.5 171.5,140.5C180.5,140.5 188,143.833 194,150.5C200,157.167 203,164.833 203,173.5C203,178.833 202.167,183.25 200.5,186.75C198.833,190.25 196.333,193.833 193,197.5C185.333,206.167 177.833,214.5 170.5,222.5C163.167,230.5 156.167,239.167 149.5,248.5C121.5,286.833 100.25,328.417 85.75,373.25C71.25,418.083 64,464.333 64,512C64,542.667 67,572.917 73,602.75C79,632.583 88.1667,661.667 100.5,690C119.5,734.333 145.167,774.333 177.5,810C181.5,814.667 185.667,819 190,823C194.333,827 198.5,831.333 202.5,836C206.167,840 208.917,843.833 210.75,847.5C212.583,851.167 213.5,855.833 213.5,861.5C213.5,870.5 210.333,878 204,884C197.667,890 190.167,893 181.5,893C174.167,893 167.5,890.5 161.5,885.5C149.833,876.167 138.25,864.667 126.75,851C115.25,837.333 104.25,822.917 93.75,807.75C83.25,792.583 73.5833,777.167 64.75,761.5C55.9167,745.833 48.5,731.167 42.5,717.5C28.1667,684.833 17.5,651.333 10.5,617C3.5,582.667 0,547.667 0,512ZM842.5,893C833.833,893 826.333,890 820,884C813.667,878 810.5,870.5 810.5,861.5C810.5,855.833 811.417,851.167 813.25,847.5C815.083,843.833 817.833,840 821.5,836C825.5,831.333 829.667,827 834,823C838.333,819 842.5,814.667 846.5,810C878.833,774.333 904.5,734.333 923.5,690C935.833,661.667 945,632.583 951,602.75C957,572.917 960,542.667 960,512C960,464.333 952.75,418.083 938.25,373.25C923.75,328.417 902.5,286.833 874.5,248.5C867.833,239.167 860.833,230.5 853.5,222.5C846.167,214.5 838.667,206.167 831,197.5C827.667,193.833 825.167,190.25 823.5,186.75C821.833,183.25 821,178.833 821,173.5C821,164.833 824,157.167 830,150.5C836,143.833 843.5,140.5 852.5,140.5C857.167,140.5 861,141.25 864,142.75C867,144.25 870.167,146.5 873.5,149.5C884.833,159.5 895.917,171.083 906.75,184.25C917.583,197.417 927.667,211.25 937,225.75C946.333,240.25 955,255.083 963,270.25C971,285.417 978,300 984,314C997.333,345.333 1007.33,377.583 1014,410.75C1020.67,443.917 1024,477.667 1024,512C1024,583.667 1009.67,652.167 981,717.5C975,731.167 967.667,745.833 959,761.5C950.333,777.167 940.75,792.583 930.25,807.75C919.75,822.917 908.75,837.333 897.25,851C885.75,864.667 874.167,876.167 862.5,885.5C856.5,890.5 849.833,893 842.5,893ZM160,512C160,489.667 162.333,466.917 167,443.75C171.667,420.583 178.417,398.083 187.25,376.25C196.083,354.417 207,333.667 220,314C233,294.333 247.833,277 264.5,262C267.5,259.333 270.5,257.25 273.5,255.75C276.5,254.25 280.167,253.5 284.5,253.5C293.167,253.5 300.583,256.75 306.75,263.25C312.917,269.75 316,277.333 316,286C316,291.333 315.083,295.917 313.25,299.75C311.417,303.583 308.833,307.5 305.5,311.5C292.5,326.833 280.917,342 270.75,357C260.583,372 252,387.583 245,403.75C238,419.917 232.75,436.833 229.25,454.5C225.75,472.167 224,491.333 224,512C224,544 229.167,575.083 239.5,605.25C249.833,635.417 264.833,663 284.5,688C289.167,694 294,699.667 299,705C304,710.333 309.167,715.833 314.5,721.5C318.167,725.5 321,729.583 323,733.75C325,737.917 326,742.833 326,748.5C326,757.167 323,764.667 317,771C311,777.333 303.667,780.5 295,780.5C288.333,780.5 282,778 276,773C257.667,757.667 241.333,739.833 227,719.5C212.667,699.167 200.5,677.583 190.5,654.75C180.5,631.917 172.917,608.333 167.75,584C162.583,559.667 160,535.667 160,512ZM729,780.5C720.333,780.5 713,777.333 707,771C701,764.667 698,757.167 698,748.5C698,742.833 699,737.917 701,733.75C703,729.583 705.833,725.5 709.5,721.5C714.833,715.833 720,710.333 725,705C730,699.667 734.833,694 739.5,688C759.167,663 774.167,635.417 784.5,605.25C794.833,575.083 800,544 800,512C800,491.333 798.25,472.167 794.75,454.5C791.25,436.833 786,419.917 779,403.75C772,387.583 763.417,372 753.25,357C743.083,342 731.5,326.833 718.5,311.5C715.167,307.5 712.583,303.583 710.75,299.75C708.917,295.917 708,291.333 708,286C708,277.333 711.083,269.75 717.25,263.25C723.417,256.75 730.833,253.5 739.5,253.5C743.833,253.5 747.5,254.25 750.5,255.75C753.5,257.25 756.5,259.333 759.5,262C776.167,277 791,294.333 804,314C817,333.667 827.917,354.417 836.75,376.25C845.583,398.083 852.333,420.583 857,443.75C861.667,466.917 864,489.667 864,512C864,535.667 861.417,559.667 856.25,584C851.083,608.333 843.5,631.917 833.5,654.75C823.5,677.583 811.333,699.167 797,719.5C782.667,739.833 766.333,757.667 748,773C745,775.667 742.083,777.583 739.25,778.75C736.417,779.917 733,780.5 729,780.5ZM432,512C432,501 434.167,490.667 438.5,481C442.833,471.333 448.583,462.917 455.75,455.75C462.917,448.583 471.333,442.833 481,438.5C490.667,434.167 501,432 512,432C523,432 533.333,434.167 543,438.5C552.667,442.833 561.083,448.583 568.25,455.75C575.417,462.917 581.167,471.333 585.5,481C589.833,490.667 592,501 592,512C592,523 589.833,533.333 585.5,543C581.167,552.667 575.417,561.083 568.25,568.25C561.083,575.417 552.667,581.167 543,585.5C533.333,589.833 523,592 512,592C501,592 490.667,589.833 481,585.5C471.333,581.167 462.917,575.417 455.75,568.25C448.583,561.083 442.833,552.667 438.5,543C434.167,533.333 432,523 432,512Z" fill="#FFFFFF" fill-opacity="1">
  </path>
</svg>